<svg width="198" height="40" viewBox="0 0 198 40" fill="none" xmlns="http://www.w3.org/2000/svg" class="c-PJLV c-PJLV-isACLx-size-md c-PJLV-fVifuS-color-text1 c-PJLV-iKRiRH-css"><path d="M2.19982 4.93108C7.12219 3.48247 14.8007 1.19222 17.6658 0.336887C18.4038 0.11655 19.1839 0.113541 19.9231 0.329834C22.674 1.1347 29.8907 3.25502 35.2778 4.91661C36.1138 5.17444 36.6837 5.96756 36.6672 6.84218C36.1772 32.8488 22.8852 38.7254 19.5482 39.7925C19.0548 39.9502 18.5334 39.9508 18.0396 39.7944C14.6876 38.7329 1.28346 32.8688 0.780184 6.87028C0.762994 5.98225 1.34776 5.18184 2.19982 4.93108Z" fill="#D9D9D9"></path><mask id="mask0_12256_81203" maskUnits="userSpaceOnUse" x="0" y="0" width="37" height="40"><path d="M2.19982 4.93108C7.12219 3.48247 14.8007 1.19222 17.6658 0.336887C18.4038 0.11655 19.1839 0.113541 19.9231 0.329834C22.674 1.1347 29.8907 3.25502 35.2778 4.91661C36.1138 5.17444 36.6837 5.96756 36.6672 6.84218C36.1772 32.8488 22.8852 38.7254 19.5482 39.7925C19.0548 39.9502 18.5334 39.9508 18.0396 39.7944C14.6876 38.7329 1.28346 32.8688 0.780184 6.87028C0.762994 5.98225 1.34776 5.18184 2.19982 4.93108Z" fill="#D9D9D9"></path></mask><g mask="url(#mask0_12256_81203)"><path d="M18.7934 19.4366L18.5117 -0.704224L37.8075 4.50704L18.7934 19.4366Z" fill="#818181"></path><path d="M18.7935 19.4366V0L0.342829 4.92958L-2.19238 16.9014L5.83579 29.4366L18.7935 19.4366Z" fill="#8D8D8D"></path><path d="M37.2438 4.92957L5.55371 29.4366V40.5634H36.8213L37.2438 4.92957Z" fill="#A4A4A4"></path></g></svg>
